<?xml version="1.0" encoding="utf-8"?>
<!-- Generator: Adobe Illustrator 19.2.0, SVG Export Plug-In . SVG Version: 6.00 Build 0)  -->
<svg version="1.1" id="Layer_1" xmlns="http://www.w3.org/2000/svg" xmlns:xlink="http://www.w3.org/1999/xlink" x="0px" y="0px"
	 viewBox="0 0 500 500" style="enable-background:new 0 0 500 500;" xml:space="preserve">
<style type="text/css">
	.st0{fill:#ECF4F7;}
	.st1{fill:#1C1D21;}
	.st2{fill:#83E1E5;}
	.st3{fill:#AAB1BA;}
	.st4{fill:none;stroke:#1C1D21;stroke-width:10;stroke-linecap:round;stroke-linejoin:round;stroke-miterlimit:10;}
	.st5{fill:#FDDF7F;}
	.st6{fill:#FFFFFF;}
</style>
<g>
	<g>
		<g>
			<path class="st2" d="M40,333.5V60c0-11,9-20,20-20h380c11,0,20,9,20,20v273.5c0,11-9,20-20,20H60C49,353.5,40,344.5,40,333.5z"/>
		</g>
	</g>
	<g>
		<g>
			<path class="st5" d="M122.9,237.3c-14,0-25.4,11.4-25.4,25.4v39.9h50.8v-39.9C148.3,248.7,137,237.3,122.9,237.3z"/>
		</g>
	</g>
	<g>
		<g>
			<path class="st5" d="M173.8,166c-14,0-25.4,11.4-25.4,25.4v111.2h50.8V191.4C199.2,177.4,187.8,166,173.8,166z"/>
		</g>
	</g>
	<g>
		<g>
			<path class="st5" d="M224.6,208.9c-14,0-25.4,11.4-25.4,25.4v68.3H250v-68.3C250,220.3,238.6,208.9,224.6,208.9z"/>
		</g>
	</g>
	<g>
		<g>
			<path class="st5" d="M275.4,143.7c-14,0-25.4,11.4-25.4,25.4v133.5h50.8V169.1C300.8,155.1,289.4,143.7,275.4,143.7z"/>
		</g>
	</g>
	<g>
		<g>
			<path class="st5" d="M326.2,132.5c-14,0-25.4,11.4-25.4,25.4v144.7h50.8V157.9C351.7,143.9,340.3,132.5,326.2,132.5z"/>
		</g>
	</g>
	<g>
		<g>
			<path class="st5" d="M377.1,84c-14,0-25.4,11.4-25.4,25.4v193.2h50.8V109.4C402.5,95.3,391.1,84,377.1,84z"/>
		</g>
	</g>
	<g>
		<g>
			<path class="st1" d="M148.3,307.6H97.5c-2.8,0-5-2.2-5-5v-39.9c0-16.8,13.6-30.4,30.4-30.4s30.4,13.6,30.4,30.4v39.9
				C153.3,305.4,151.1,307.6,148.3,307.6z M102.5,297.6h40.8v-34.9c0-11.3-9.2-20.4-20.4-20.4c-11.3,0-20.4,9.2-20.4,20.4V297.6z"/>
		</g>
	</g>
	<g>
		<g>
			<path class="st1" d="M199.2,307.6h-50.8c-2.8,0-5-2.2-5-5V191.4c0-16.8,13.6-30.4,30.4-30.4c16.8,0,30.4,13.6,30.4,30.4v111.2
				C204.2,305.4,201.9,307.6,199.2,307.6z M153.3,297.6h40.8V191.4c0-11.3-9.2-20.4-20.4-20.4c-11.3,0-20.4,9.2-20.4,20.4V297.6z"/>
		</g>
	</g>
	<g>
		<g>
			<path class="st1" d="M250,307.6h-50.8c-2.8,0-5-2.2-5-5v-72.4c0-16.8,13.6-30.4,30.4-30.4c16.8,0,30.4,13.6,30.4,30.4v72.4
				C255,305.4,252.8,307.6,250,307.6z M204.2,297.6H245v-67.4c0-11.3-9.2-20.4-20.4-20.4c-11.3,0-20.4,9.2-20.4,20.4V297.6z"/>
		</g>
	</g>
	<g>
		<g>
			<path class="st1" d="M300.8,307.6H250c-2.8,0-5-2.2-5-5V169.1c0-16.8,13.6-30.4,30.4-30.4c16.8,0,30.4,13.6,30.4,30.4v133.5
				C305.8,305.4,303.6,307.6,300.8,307.6z M255,297.6h40.8V169.1c0-11.3-9.2-20.4-20.4-20.4c-11.3,0-20.4,9.2-20.4,20.4V297.6z"/>
		</g>
	</g>
	<g>
		<g>
			<path class="st1" d="M351.7,307.6h-50.8c-2.8,0-5-2.2-5-5V157.9c0-16.8,13.6-30.4,30.4-30.4c16.8,0,30.4,13.6,30.4,30.4v144.7
				C356.7,305.4,354.4,307.6,351.7,307.6z M305.8,297.6h40.8V157.9c0-11.3-9.2-20.4-20.4-20.4c-11.3,0-20.4,9.2-20.4,20.4V297.6z"/>
		</g>
	</g>
	<g>
		<g>
			<path class="st1" d="M402.5,307.6h-50.8c-2.8,0-5-2.2-5-5V109.4c0-16.8,13.6-30.4,30.4-30.4c16.8,0,30.4,13.6,30.4,30.4v193.2
				C407.5,305.4,405.2,307.6,402.5,307.6z M356.7,297.6h40.8V109.4c0-11.3-9.2-20.4-20.4-20.4c-11.3,0-20.4,9.2-20.4,20.4V297.6z"/>
		</g>
	</g>
	<g>
		<g>
			<g>
				<path class="st1" d="M370.8,500H129.2c-2.8,0-5-2.2-5-5v-10c0-22.1,17.9-40,40-40h24.9c9.4,0,17.1-7.7,17.1-17.1v-13.5
					c0-11.5-9.4-20.9-20.9-20.9H35c-19.3,0-35-15.7-35-35V35C0,15.7,15.7,0,35,0h430c19.3,0,35,15.7,35,35v323.5
					c0,19.3-15.7,35-35,35H314.6c-11.5,0-20.9,9.4-20.9,20.9v13.5c0,9.4,7.7,17.1,17.1,17.1h24.9c22.1,0,40,17.9,40,40v10
					C375.8,497.8,373.5,500,370.8,500z M134.2,490h231.5v-5c0-16.5-13.5-30-30-30h-24.9c-15,0-27.1-12.2-27.1-27.1v-13.5
					c0-17,13.9-30.9,30.9-30.9H465c13.8,0,25-11.2,25-25V35c0-13.8-11.2-25-25-25H35c-13.8,0-25,11.2-25,25v323.5
					c0,13.8,11.2,25,25,25h150.4c17,0,30.9,13.9,30.9,30.9v13.5c0,15-12.2,27.1-27.1,27.1h-24.9c-16.5,0-30,13.5-30,30V490z"/>
			</g>
		</g>
		<g>
			<g>
				<path class="st1" d="M224.6,393.5H179c-2.8,0-5-2.2-5-5s2.2-5,5-5h45.6c2.8,0,5,2.2,5,5S227.3,393.5,224.6,393.5z"/>
			</g>
		</g>
		<g>
			<g>
				<path class="st1" d="M259.5,393.5H250c-2.8,0-5-2.2-5-5s2.2-5,5-5h9.5c2.8,0,5,2.2,5,5S262.3,393.5,259.5,393.5z"/>
			</g>
		</g>
		<g>
			<g>
				<path class="st1" d="M317.7,455h-55.3c-2.8,0-5-2.2-5-5s2.2-5,5-5h55.3c2.8,0,5,2.2,5,5S320.4,455,317.7,455z"/>
			</g>
		</g>
	</g>
	<g>
		<g>
			<g>
				<path class="st1" d="M40,65c-2.8,0-5-2.2-5-5c0-13.8,11.2-25,25-25h17.3c2.8,0,5,2.2,5,5s-2.2,5-5,5H60c-8.3,0-15,6.7-15,15
					C45,62.8,42.8,65,40,65z"/>
			</g>
		</g>
		<g>
			<g>
				<path class="st1" d="M40,165.7c-2.8,0-5-2.2-5-5v-74c0-2.8,2.2-5,5-5s5,2.2,5,5v74C45,163.4,42.8,165.7,40,165.7z"/>
			</g>
		</g>
		<g>
			<g>
				<path class="st1" d="M107,45h-7.5c-2.8,0-5-2.2-5-5s2.2-5,5-5h7.5c2.8,0,5,2.2,5,5S109.8,45,107,45z"/>
			</g>
		</g>
	</g>
	<g>
		<g>
			<g>
				<path class="st1" d="M440,358.5h-17.3c-2.8,0-5-2.2-5-5s2.2-5,5-5H440c8.3,0,15-6.7,15-15c0-2.8,2.2-5,5-5s5,2.2,5,5
					C465,347.3,453.8,358.5,440,358.5z"/>
			</g>
		</g>
		<g>
			<g>
				<path class="st1" d="M460,311.8c-2.8,0-5-2.2-5-5v-74c0-2.8,2.2-5,5-5s5,2.2,5,5v74C465,309.6,462.8,311.8,460,311.8z"/>
			</g>
		</g>
		<g>
			<g>
				<path class="st1" d="M400.5,358.5H393c-2.8,0-5-2.2-5-5s2.2-5,5-5h7.5c2.8,0,5,2.2,5,5S403.3,358.5,400.5,358.5z"/>
			</g>
		</g>
	</g>
</g>
</svg>
